# xmcd
#
# Track frame offsets:
#	150
#	20342
#	37565
#	47603
#	80379
#	93640
#	109772
#	126000
#	157953
#	176964
#
# Disc length: 2800 seconds
#
# Revision: 0
# Processed by: cddbd v1.5.2PL0 Copyright (c) Steve Scherf et al.
# Submitted via: audiograbber 1.83.01
#
DISCID=6f0aee0a
DTITLE=Snowy White  - (and The White Flames) Restless
DYEAR=2002
DGENRE=Blues
TTITLE0=Blues Is The Road
TTITLE1=The Time Has Come
TTITLE2=Restless
TTITLE3=Restless Too
TTITLE4=You Can't Break My Heart
TTITLE5=It's Your Life
TTITLE6=Softly
TTITLE7=Soldier Of Fortune
TTITLE8=New Day ...Maybe
TTITLE9=Too Far Away
EXTD=
EXTT0=
EXTT1=
EXTT2=
EXTT3=
EXTT4=
EXTT5=
EXTT6=
EXTT7=
EXTT8=
EXTT9=
PLAYORDER=
